<svg width="136" height="75" viewBox="0 0 136 75" fill="none" xmlns="http://www.w3.org/2000/svg">
<path d="M72.6079 29.0417C74.0557 35.4635 73.8177 42.1604 71.918 48.4588C70.0182 54.7572 66.5237 60.4347 61.786 64.9202C59.3323 67.2589 56.5665 69.2324 53.5704 70.7821C50.8665 72.2088 47.9964 73.2813 45.0282 73.9742C37.9419 75.636 30.531 75.1202 23.7325 72.4918C16.9339 69.8633 11.0529 65.2404 6.83307 59.2074C2.6132 53.1744 0.243906 46.0023 0.0247116 38.5976C-0.194482 31.193 1.74627 23.8884 5.60161 17.6074C9.45695 11.3263 15.0538 6.35072 21.6845 3.30972C28.3152 0.26872 35.6822 -0.701176 42.8539 0.522648C50.0256 1.74647 56.6802 5.10906 61.9763 10.1853C67.2723 15.2616 70.9721 21.8235 72.6079 29.0417Z" fill="url(#paint0_linear_1318_2343)"/>
<path d="M72.6078 29.0417C74.0556 35.4635 73.8176 42.1605 71.9179 48.4589C70.0181 54.7572 66.5236 60.4348 61.7859 64.9203C59.3322 67.2589 56.5663 69.2324 53.5703 70.7822C45.4257 70.5403 37.5895 67.5552 31.2874 62.2938C24.9852 57.0323 20.5726 49.7912 18.7396 41.7032C16.9067 33.6151 17.7569 25.1363 21.1572 17.5928C24.5575 10.0494 30.3162 3.8668 37.5324 0.0121537C45.7077 0.20026 53.5888 3.15568 59.9327 8.41223C66.2766 13.6688 70.7222 20.9273 72.5683 29.0429L72.6078 29.0417Z" fill="url(#paint1_linear_1318_2343)"/>
<path d="M72.6078 29.0417C74.0556 35.4635 73.8176 42.1605 71.9179 48.4588C70.0181 54.7572 66.5236 60.4347 61.7859 64.9202C55.61 62.9881 50.0413 59.4358 45.6381 54.6195C41.235 49.8032 38.1522 43.8922 36.6989 37.4792C35.2456 31.0662 35.4728 24.3767 37.3579 18.0815C39.2429 11.7862 42.7195 6.10645 47.439 1.6118C53.6298 3.5283 59.2157 7.07272 63.6342 11.8881C68.0527 16.7036 71.1478 22.62 72.6078 29.0417Z" fill="url(#paint2_linear_1318_2343)"/>
<path d="M72.6082 29.0417C74.635 37.9393 73.3819 47.2853 69.0872 55.3033C61.8123 49.981 56.6888 42.1421 54.674 33.2517C52.6592 24.3612 53.8912 15.0275 58.1396 6.99502C65.4494 12.2914 70.5976 20.136 72.6082 29.0417Z" fill="url(#paint3_linear_1318_2343)"/>
<path d="M87.5212 28.8817V37.7281C87.5212 38.2681 87.305 38.7859 86.9202 39.1677C86.5354 39.5495 86.0135 39.764 85.4693 39.764H84.6646C84.1211 39.7619 83.6004 39.5468 83.216 39.1654C82.8317 38.784 82.6148 38.2674 82.6127 37.7281V28.8977C82.5948 27.8146 82.7551 26.7359 83.0874 25.7041C83.4026 24.8005 83.923 23.981 84.6083 23.3089C85.2648 22.618 86.0605 22.0719 86.9435 21.706C87.8266 21.3402 88.7774 21.1627 89.7341 21.1851C90.7603 21.1768 91.7771 21.3807 92.7195 21.7839C93.648 22.1948 94.4726 22.8058 95.1335 23.5723C95.7249 24.2379 96.1812 25.0105 96.4773 25.8478C96.7728 26.837 96.9086 27.8664 96.8796 28.8977V37.7281C96.8796 38.2681 96.6635 38.7859 96.2787 39.1677C95.8938 39.5495 95.3719 39.764 94.8277 39.764H94.023C93.4788 39.764 92.9569 39.5495 92.5721 39.1677C92.1873 38.7859 91.9711 38.2681 91.9711 37.7281V28.4107C92.0166 27.7594 91.8189 27.1143 91.4159 26.5983C91.2083 26.3865 90.957 26.2219 90.6792 26.1158C90.4013 26.0096 90.1036 25.9645 89.8065 25.9835C89.5058 25.9768 89.2071 26.0331 88.9298 26.1487C88.6525 26.2642 88.4029 26.4365 88.1972 26.6542C87.769 27.1383 87.5443 27.767 87.5695 28.4107L87.5212 28.8817Z" fill="#1D61FF"/>
<path d="M107.23 35.7323H109.001C109.279 35.7323 109.555 35.7844 109.812 35.8857C110.069 35.987 110.303 36.1355 110.5 36.3226C110.697 36.5098 110.853 36.732 110.959 36.9765C111.066 37.2211 111.121 37.4832 111.121 37.7479C111.121 38.0126 111.066 38.2747 110.959 38.5192C110.853 38.7638 110.697 38.986 110.5 39.1731C110.303 39.3603 110.069 39.5087 109.812 39.61C109.555 39.7113 109.279 39.7635 109.001 39.7635H104.336C103.585 39.7739 102.841 39.6343 102.15 39.3538C101.46 39.0733 100.839 38.6582 100.329 38.1352C99.8983 37.6726 99.5653 37.136 99.3474 36.5543C99.1182 36.0114 98.9997 35.432 98.9982 34.847C98.9939 34.2611 99.1038 33.6796 99.3224 33.1318C99.9916 31.6291 100.086 29.951 99.5885 28.3892C99.4069 27.88 99.3142 27.346 99.3141 26.8084C99.3165 26.2128 99.4262 25.6219 99.6384 25.0615C99.8424 24.5017 100.152 23.982 100.553 23.5281C100.935 23.0795 101.404 22.704 101.933 22.4215C102.91 21.9223 104.009 21.6795 105.118 21.718H109.001C109.563 21.718 110.102 21.9304 110.5 22.3084C110.898 22.6864 111.121 23.199 111.121 23.7336C111.121 24.2682 110.898 24.7808 110.5 25.1588C110.102 25.5368 109.563 25.7492 109.001 25.7492H106.506C106.055 25.7458 105.618 25.8974 105.276 26.176C105.125 26.3017 105.004 26.4575 104.924 26.6324C104.843 26.8073 104.805 26.9969 104.81 27.1878C104.804 27.3902 104.848 27.5911 104.937 27.7748C105.027 27.9586 105.16 28.1202 105.326 28.2469C105.669 28.5407 106.119 28.6965 106.581 28.6817H109.034C109.312 28.6817 109.588 28.7338 109.845 28.8351C110.103 28.9364 110.336 29.0849 110.533 29.272C110.73 29.4592 110.886 29.6814 110.993 29.9259C111.099 30.1705 111.154 30.4326 111.154 30.6973C111.165 30.9712 111.118 31.2445 111.014 31.5004C110.911 31.7562 110.753 31.9893 110.552 32.1854C110.35 32.3815 110.109 32.5364 109.842 32.6407C109.575 32.745 109.289 32.7964 109.001 32.7919H106.781C106.315 32.7877 105.861 32.9325 105.492 33.2029C105.335 33.3357 105.21 33.499 105.125 33.6817C105.041 33.8645 104.998 34.0624 105.001 34.2621C104.999 34.4594 105.042 34.6547 105.126 34.8348C105.211 35.0149 105.336 35.1755 105.492 35.3055C105.82 35.592 106.252 35.7452 106.698 35.7323H107.23Z" fill="#1D61FF"/>
<path d="M113.799 32.112V23.7777C113.795 23.5082 113.844 23.2406 113.944 22.9904C114.044 22.7402 114.192 22.5124 114.381 22.3204C114.569 22.1283 114.794 21.9758 115.042 21.8717C115.289 21.7676 115.555 21.714 115.824 21.7141H116.618C117.155 21.7141 117.67 21.9281 118.05 22.3091C118.429 22.6902 118.643 23.207 118.643 23.7458V32.2952C118.643 32.4785 118.643 32.606 118.643 32.6857V33.2036C118.69 34.7174 119.317 35.4744 120.532 35.4744C120.906 35.4844 121.274 35.3817 121.588 35.1796C121.895 34.9897 122.138 34.7123 122.287 34.3828C122.47 33.834 122.548 33.2555 122.517 32.6777V23.7777C122.513 23.5109 122.561 23.2458 122.659 22.9977C122.757 22.7496 122.903 22.5232 123.088 22.3316C123.273 22.14 123.494 21.9868 123.738 21.8808C123.982 21.7749 124.244 21.7182 124.51 21.7141H125.304C125.841 21.7141 126.356 21.9281 126.736 22.3091C127.116 22.6902 127.329 23.207 127.329 23.7458V32.7255C127.324 33.1174 127.351 33.5091 127.408 33.8968C127.447 34.1661 127.547 34.4226 127.702 34.6457C127.885 34.9147 128.134 35.1321 128.425 35.2771C128.715 35.4221 129.038 35.4898 129.362 35.4738C129.687 35.4578 130.001 35.3586 130.276 35.1858C130.552 35.0129 130.778 34.7721 130.934 34.4864C131.129 33.9543 131.21 33.3868 131.172 32.8211V23.7777C131.168 23.5096 131.217 23.2432 131.315 22.9941C131.414 22.7449 131.561 22.5179 131.748 22.326C131.935 22.1342 132.158 21.9813 132.404 21.8763C132.649 21.7713 132.914 21.7161 133.181 21.7141H133.975C134.512 21.7141 135.027 21.9281 135.407 22.3091C135.786 22.6902 136 23.207 136 23.7458V32.9088C136.008 33.9017 135.855 34.8894 135.547 35.8329C135.239 36.656 134.766 37.4071 134.157 38.04C133.479 38.7465 132.666 39.3098 131.768 39.6971C130.869 40.0843 129.903 40.2875 128.925 40.2949C128.453 40.2953 127.982 40.2473 127.52 40.1515C125.778 39.793 123.981 39.793 122.239 40.1515C120.976 40.3995 119.669 40.3027 118.455 39.871C117.241 39.4394 116.165 38.6887 115.339 37.6974C115.08 37.3613 114.849 37.0042 114.649 36.6297C114.46 36.2679 114.306 35.8891 114.188 35.4983C114.054 35.0862 113.961 34.6619 113.91 34.2314C113.84 33.7379 113.809 33.2398 113.815 32.7414L113.799 32.112Z" fill="#1D61FF"/>
<path d="M86.0902 48.8337V54.5141C86.0902 54.8732 85.9482 55.2175 85.6954 55.4714C85.4426 55.7252 85.0998 55.8679 84.7423 55.8679H84.2137C83.8562 55.8679 83.5133 55.7252 83.2606 55.4714C83.0078 55.2175 82.8658 54.8732 82.8658 54.5141V48.5417C82.8598 48.0676 82.9041 47.5942 82.9979 47.1296C83.0748 46.7344 83.2064 46.3519 83.3891 45.9935C83.5794 45.6378 83.8139 45.3078 84.0868 45.0113C84.5297 44.5311 85.0706 44.1526 85.6726 43.9018C86.2694 43.6403 86.9139 43.5065 87.565 43.5089C87.7505 43.509 87.9358 43.5196 88.12 43.5408C89.5369 43.7109 90.9689 43.7109 92.3858 43.5408C92.5718 43.5195 92.7589 43.5088 92.9461 43.5089C93.4096 43.5071 93.8708 43.5733 94.3152 43.7054C95.0723 43.9389 95.764 44.3481 96.3344 44.8999L96.4666 45.0432C96.7672 45.3771 97.0215 45.7503 97.2225 46.1527C97.3806 46.4896 97.4909 46.8469 97.5502 47.2145C97.6253 47.6206 97.6607 48.0331 97.6559 48.4461V54.5141C97.6559 54.8732 97.5139 55.2175 97.2611 55.4714C97.0084 55.7252 96.6655 55.8679 96.308 55.8679H95.7794C95.4219 55.8679 95.0791 55.7252 94.8263 55.4714C94.5735 55.2175 94.4315 54.8732 94.4315 54.5141V48.4621C94.4624 48.0627 94.3895 47.6621 94.2201 47.2994C94.1159 47.1216 93.9662 46.975 93.7866 46.8747C93.5918 46.7746 93.3764 46.7219 93.1576 46.7208C92.9377 46.718 92.7208 46.7729 92.5285 46.88C92.3424 46.9934 92.1878 47.1523 92.0792 47.3419C91.9113 47.7275 91.8405 48.1487 91.8731 48.5682V54.5141C91.8731 54.8732 91.7311 55.2175 91.4783 55.4714C91.2255 55.7252 90.8826 55.8679 90.5252 55.8679H89.9966C89.6391 55.8679 89.2962 55.7252 89.0434 55.4714C88.7906 55.2175 88.6486 54.8732 88.6486 54.5141V48.5682C88.6748 48.149 88.6043 47.7293 88.4425 47.3419C88.3398 47.1479 88.1839 46.9876 87.9932 46.88C87.7994 46.7717 87.5806 46.7168 87.3588 46.7208C87.0929 46.7115 86.8311 46.7898 86.6135 46.9438C86.4039 47.0894 86.2537 47.3062 86.1906 47.5543C86.1334 47.8051 86.1032 48.0614 86.1008 48.3187V48.4727C86.0961 48.5257 86.0961 48.579 86.1008 48.632L86.0902 48.8337Z" fill="#1D61FF"/>
<path d="M99.0303 49.8051C99.0271 48.697 99.3147 47.6076 99.8641 46.6466C100.413 45.6856 101.205 44.887 102.16 44.3311C103.114 43.7752 104.198 43.4817 105.301 43.4801C106.404 43.4785 107.489 43.7689 108.445 44.3221C109.401 44.8752 110.195 45.6716 110.747 46.631C111.299 47.5903 111.59 48.6789 111.59 49.787C111.59 50.8951 111.299 51.9837 110.747 52.9431C110.195 53.9024 109.401 54.6988 108.445 55.2519C107.491 55.8081 106.408 56.101 105.305 56.101C104.202 56.101 103.119 55.8081 102.165 55.2519C101.21 54.7001 100.417 53.9049 99.8669 52.9465C99.3165 51.9882 99.0279 50.9008 99.0303 49.7945V49.8051ZM102.239 49.8051C102.238 50.3467 102.382 50.8785 102.656 51.3446C102.926 51.8086 103.31 52.1945 103.772 52.4648C104.236 52.7393 104.766 52.884 105.305 52.884C105.844 52.884 106.373 52.7393 106.838 52.4648C107.302 52.1937 107.687 51.8048 107.954 51.337C108.221 50.8692 108.361 50.3391 108.36 49.7998C108.359 49.2605 108.216 48.731 107.947 48.2646C107.677 47.7981 107.29 47.4111 106.825 47.1424C106.359 46.8737 105.831 46.7327 105.294 46.7336C104.757 46.7346 104.23 46.8774 103.765 47.1477C103.301 47.418 102.915 47.8064 102.647 48.2738C102.379 48.7411 102.238 49.2711 102.239 49.8104V49.8051Z" fill="#1D61FF"/>
<path d="M112.547 49.8052C112.548 48.6991 112.838 47.6126 113.389 46.655C113.94 45.6974 114.733 44.9024 115.687 44.3498C116.641 43.7973 117.723 43.5067 118.825 43.5073C119.926 43.5078 121.008 43.7995 121.961 44.353C122.912 44.9043 123.701 45.6971 124.25 46.6518C124.664 47.3669 124.933 48.1571 125.042 48.977C125.151 49.7969 125.098 50.6304 124.885 51.4295C124.672 52.2287 124.304 52.9777 123.803 53.6337C123.301 54.2897 122.675 54.8396 121.961 55.252C121.009 55.8183 119.922 56.1138 118.816 56.1067C117.992 56.1074 117.176 55.9449 116.415 55.6284C115.654 55.3119 114.962 54.8477 114.38 54.2623C113.797 53.6769 113.336 52.9819 113.021 52.2171C112.707 51.4523 112.545 50.6327 112.547 49.8052ZM115.755 49.8052C115.752 50.3471 115.896 50.8797 116.173 51.3447C116.442 51.8087 116.826 52.1946 117.288 52.4649C117.753 52.7394 118.282 52.8841 118.821 52.8841C119.36 52.8841 119.89 52.7394 120.354 52.4649C120.76 52.2287 121.106 51.9021 121.366 51.5102C121.626 51.1184 121.792 50.6719 121.853 50.2051C121.914 49.7383 121.867 49.2637 121.717 48.8179C121.566 48.3722 121.315 47.9671 120.984 47.634C120.653 47.3009 120.25 47.0486 119.806 46.8967C119.362 46.7448 118.89 46.6973 118.425 46.7578C117.96 46.8183 117.515 46.9853 117.125 47.2458C116.734 47.5063 116.409 47.8534 116.173 48.2603C115.895 48.727 115.751 49.2615 115.755 49.8052Z" fill="#1D61FF"/>
<path d="M129.705 48.6319V54.5141C129.705 54.8731 129.563 55.2175 129.31 55.4713C129.057 55.7252 128.715 55.8678 128.357 55.8678H127.829C127.471 55.8678 127.128 55.7252 126.875 55.4713C126.623 55.2175 126.481 54.8731 126.481 54.5141V48.6426C126.467 47.9227 126.571 47.2055 126.787 46.519C126.998 45.9203 127.34 45.3762 127.786 44.9264C128.218 44.4676 128.741 44.1048 129.321 43.8616C129.901 43.6183 130.525 43.5 131.153 43.5142C131.829 43.5087 132.499 43.6443 133.12 43.9124C133.729 44.1864 134.271 44.5925 134.706 45.1016C135.098 45.5423 135.4 46.0565 135.594 46.6146C135.788 47.2723 135.877 47.9568 135.858 48.6426V54.5141C135.858 54.8731 135.716 55.2175 135.463 55.4713C135.21 55.7252 134.867 55.8678 134.51 55.8678H133.981C133.624 55.8678 133.281 55.7252 133.028 55.4713C132.775 55.2175 132.633 54.8731 132.633 54.5141V48.3187C132.662 47.8866 132.535 47.4586 132.274 47.1136C132.137 46.9739 131.972 46.8652 131.789 46.7947C131.607 46.7243 131.412 46.6936 131.217 46.7048C131.019 46.6994 130.823 46.7363 130.64 46.8132C130.458 46.8901 130.294 47.0052 130.16 47.1508C129.875 47.4707 129.725 47.8897 129.742 48.3187L129.705 48.6319Z" fill="#1D61FF"/>
<defs>
<linearGradient id="paint0_linear_1318_2343" x1="5.34478" y1="65.2861" x2="78.1813" y2="45.5919" gradientUnits="userSpaceOnUse">
<stop stop-color="#3AA5FF"/>
<stop offset="0.828125" stop-color="#003AFF"/>
</linearGradient>
<linearGradient id="paint1_linear_1318_2343" x1="22.9997" y1="60.5015" x2="77.9015" y2="46.2004" gradientUnits="userSpaceOnUse">
<stop stop-color="#3AA5FF"/>
<stop offset="0.828125" stop-color="#003AFF"/>
</linearGradient>
<linearGradient id="paint2_linear_1318_2343" x1="40.5098" y1="54.2955" x2="77.1895" y2="45.0593" gradientUnits="userSpaceOnUse">
<stop stop-color="#3AA5FF"/>
<stop offset="0.828125" stop-color="#003AFF"/>
</linearGradient>
<linearGradient id="paint3_linear_1318_2343" x1="57.582" y1="46.0835" x2="75.9393" y2="41.6214" gradientUnits="userSpaceOnUse">
<stop stop-color="#3AA5FF"/>
<stop offset="0.828125" stop-color="#003AFF"/>
</linearGradient>
</defs>
</svg>
