<svg width="17" height="15" viewBox="0 0 17 15" fill="none" xmlns="http://www.w3.org/2000/svg">
<path d="M8.16453 9.72217C10.7231 9.72217 12.9078 10.1981 12.9078 12.1028C12.9078 14.0067 10.7371 14.5 8.16453 14.5C5.60595 14.5 3.42127 14.024 3.42127 12.1201C3.42127 10.2155 5.59192 9.72217 8.16453 9.72217ZM12.2554 8.57527C13.2336 8.55399 14.2852 8.7116 14.6738 8.8235C15.497 9.01341 16.0385 9.40112 16.2629 9.96457C16.4525 10.4271 16.4525 10.9638 16.2629 11.4256C15.9197 12.2995 14.8133 12.58 14.3833 12.6525C14.2945 12.6683 14.2231 12.5777 14.2324 12.4729C14.4521 10.0513 12.7047 8.90309 12.2527 8.6391C12.2334 8.62728 12.2293 8.60915 12.2314 8.59812C12.2327 8.59024 12.2407 8.57763 12.2554 8.57527ZM3.96599 8.57364L4.15018 8.57558C4.16487 8.57795 4.17222 8.59056 4.17355 8.59765C4.17556 8.60947 4.17155 8.62681 4.15285 8.63941C3.70016 8.9034 1.95282 10.0516 2.17249 12.4724C2.18184 12.578 2.11106 12.6678 2.02226 12.6529C1.59227 12.5804 0.48591 12.2998 0.142718 11.4259C-0.0475728 10.9633 -0.0475728 10.4275 0.142718 9.96488C0.367062 9.40144 0.907889 9.01373 1.73115 8.82302C2.12041 8.71191 3.17135 8.55431 4.15018 8.57558L3.96599 8.57364ZM8.16453 0.5C9.90653 0.5 11.3033 2.14698 11.3033 4.20375C11.3033 6.25972 9.90653 7.90828 8.16453 7.90828C6.42253 7.90828 5.02572 6.25972 5.02572 4.20375C5.02572 2.14698 6.42253 0.5 8.16453 0.5ZM12.4256 1.11766C14.1082 1.11766 15.4296 2.98608 14.9796 5.06727C14.6758 6.46839 13.5761 7.39905 12.3509 7.36123C12.228 7.35729 12.1072 7.34389 11.9903 7.32025C11.9055 7.30291 11.8628 7.19023 11.9109 7.10669C12.3782 6.29502 12.6447 5.31865 12.6447 4.27057C12.6447 3.17678 12.3535 2.15707 11.8481 1.32097C11.8321 1.29497 11.8201 1.25478 11.8361 1.22483C11.8494 1.2004 11.8741 1.18779 11.8975 1.18149C12.0678 1.14051 12.2427 1.11766 12.4256 1.11766ZM3.97892 1.11758C4.16187 1.11758 4.3368 1.14043 4.50773 1.18141C4.53043 1.18771 4.55581 1.20111 4.56916 1.22475C4.58452 1.2547 4.57316 1.29489 4.55714 1.32089C4.0517 2.15699 3.76059 3.1767 3.76059 4.27049C3.76059 5.31857 4.027 6.29494 4.49438 7.10662C4.54245 7.19015 4.49972 7.30283 4.41492 7.32017C4.29741 7.3446 4.17723 7.35721 4.05437 7.36115C2.82916 7.39897 1.72948 6.46831 1.42568 5.06719C0.974992 2.986 2.29635 1.11758 3.97892 1.11758Z" fill="white"/>
</svg>
