<svg width="26" height="26" viewBox="0 0 26 26" fill="none" xmlns="http://www.w3.org/2000/svg">
<path d="M13 0.499115C19.9125 0.499115 25.5 6.10037 25.5 12.9991C25.5 19.9004 19.9125 25.4991 13 25.4991C6.1 25.4991 0.5 19.9004 0.5 12.9991C0.5 6.10037 6.1 0.499115 13 0.499115ZM13 16.6629C12.4 16.6629 11.9125 17.1504 11.9125 17.7504C11.9125 18.3504 12.4 18.8504 13.0125 18.8504C13.6125 18.8504 14.1 18.3504 14.1 17.7504C14.1 17.1504 13.6125 16.6629 13 16.6629ZM13 7.16162C12.4 7.16162 11.9 7.66287 11.9 8.26162V13.7866C11.9 14.3879 12.4 14.8741 13 14.8741C13.6 14.8741 14.0875 14.3879 14.0875 13.7866V8.26162C14.0875 7.66287 13.6 7.16162 13 7.16162Z" fill="#FFCC42"/>
</svg>
