<svg width="23" height="23" viewBox="0 0 23 23" fill="none" xmlns="http://www.w3.org/2000/svg">
<path fill-rule="evenodd" clip-rule="evenodd" d="M8.73967 14.0615C12.4913 14.0615 17.4793 14.4931 17.4793 18.2269C17.4793 22.1601 11.6672 22.3961 9.17413 22.4103L8.26896 22.4103C5.61072 22.3962 0 22.1615 0 18.2504C0 14.3128 5.81212 14.0766 8.30521 14.0624L8.60475 14.0615C8.65143 14.0615 8.69643 14.0615 8.73967 14.0615ZM8.73967 15.8255C5.54057 15.8255 1.72675 16.2454 1.72675 18.2504C1.72675 19.8404 4.08665 20.6471 8.73967 20.6471C13.3927 20.6471 15.7526 19.8322 15.7526 18.2269C15.7526 16.6334 13.3927 15.8255 8.73967 15.8255ZM19.2322 13.5122C22.3473 13.9885 23 15.462 23 16.6133C23 17.4706 22.6374 18.6314 20.9072 19.3005C20.807 19.3393 20.7034 19.3581 20.601 19.3581C20.2522 19.3581 19.9241 19.1406 19.794 18.7889C19.6248 18.3338 19.8493 17.8234 20.2948 17.6517C21.2732 17.2731 21.2732 16.8109 21.2732 16.6133C21.2732 15.9465 20.5008 15.4902 18.9778 15.2586C18.5058 15.1857 18.1801 14.7364 18.2503 14.2554C18.3217 13.7733 18.7695 13.4499 19.2322 13.5122ZM8.73967 0C11.9986 0 14.651 2.70952 14.651 6.03879C14.6578 7.64287 14.0489 9.15756 12.9391 10.2983C11.8317 11.4402 10.3525 12.0717 8.77881 12.0776H8.73967C5.47956 12.0776 2.82727 9.36807 2.82727 6.03879C2.82727 2.70952 5.47956 0 8.73967 0ZM16.8987 1.3216C19.1607 1.70027 20.8023 3.67714 20.8023 6.02092C20.7977 8.37881 19.0744 10.4039 16.7928 10.7308C16.7525 10.7367 16.7122 10.7391 16.6719 10.7391C16.2483 10.7391 15.8788 10.4204 15.8177 9.97935C15.7521 9.49719 16.0802 9.05031 16.5522 8.98328C17.9888 8.77748 19.0732 7.50386 19.0756 6.01974C19.0756 4.54503 18.0418 3.30081 16.6201 3.06326C16.1493 2.98329 15.8304 2.53053 15.9075 2.04954C15.9847 1.56856 16.4302 1.24516 16.8987 1.3216ZM8.73967 1.76401C6.43158 1.76401 4.55402 3.68208 4.55402 6.03879C4.55402 8.39551 6.43158 10.3136 8.73967 10.3136H8.77536C9.88508 10.3089 10.9303 9.86317 11.7143 9.05525C12.4994 8.24969 12.9288 7.17834 12.9242 6.04232C12.9242 3.68208 11.0466 1.76401 8.73967 1.76401Z" fill="#4F5B62"/>
</svg>
