<svg width="20" height="25" viewBox="0 0 20 25" fill="none" xmlns="http://www.w3.org/2000/svg">
<path fill-rule="evenodd" clip-rule="evenodd" d="M7.9777 22.2163C8.52223 22.8872 9.22129 23.2558 9.94663 23.2558H9.94768C10.6762 23.2558 11.3784 22.8872 11.924 22.2151C12.2162 21.8581 12.7145 21.8291 13.0372 22.1512C13.361 22.4733 13.3873 23.0256 13.0961 23.3826C12.2467 24.4256 11.1293 25 9.94768 25H9.94558C8.76716 24.9988 7.65182 24.4244 6.80559 23.3814C6.5144 23.0244 6.54068 22.4721 6.86445 22.1512C7.18823 21.8279 7.68651 21.857 7.9777 22.2163ZM9.99898 0C14.6717 0 17.8106 4.02558 17.8106 7.78488C17.8106 9.7186 18.2553 10.5384 18.7273 11.4081C19.194 12.2663 19.7228 13.2407 19.7228 15.0826C19.3559 19.7884 14.9145 20.1721 9.99898 20.1721C5.08348 20.1721 0.641019 19.7884 0.278334 15.157C0.275195 13.2407 0.803958 12.2663 1.2707 11.4081L1.43547 11.1013C1.84117 10.3301 2.18736 9.49111 2.18736 7.78488C2.18736 4.02558 5.32631 0 9.99898 0ZM9.99898 1.74419C6.32497 1.74419 3.76419 4.92791 3.76419 7.78488C3.76419 10.2023 3.15764 11.3198 2.62152 12.3058C2.19157 13.0977 1.85203 13.7233 1.85203 15.0826C2.02758 17.2756 3.33635 18.4279 9.99898 18.4279C16.6248 18.4279 17.9746 17.2244 18.1491 15.007C18.1459 13.7233 17.8064 13.0977 17.3764 12.3058C16.8403 11.3198 16.2338 10.2023 16.2338 7.78488C16.2338 4.92791 13.673 1.74419 9.99898 1.74419Z" fill="#4F5B62"/>
</svg>
