<svg width="24" height="25" viewBox="0 0 24 25" fill="none" xmlns="http://www.w3.org/2000/svg">
<path fill-rule="evenodd" clip-rule="evenodd" d="M16.7692 0C17.2575 0 17.6538 0.390696 17.6538 0.872089L17.6543 1.85791C19.3765 1.97431 20.8068 2.55586 21.8192 3.55591C22.9243 4.65009 23.5058 6.22334 23.5 8.11054V18.7186C23.5 22.593 21.0041 25 16.988 25H7.01192C2.99579 25 0.5 22.5593 0.5 18.6303V8.10822C0.5 4.45381 2.72575 2.10806 6.35576 1.85831L6.35649 0.872089C6.35649 0.390696 6.75279 0 7.2411 0C7.7294 0 8.12571 0.390696 8.12571 0.872089L8.12536 1.83604H15.884L15.8846 0.872089C15.8846 0.390696 16.2809 0 16.7692 0ZM21.7307 10.3534H2.26922V18.6303C2.26922 21.614 3.95353 23.2558 7.01192 23.2558H16.988C20.0464 23.2558 21.7307 21.6442 21.7307 18.7186L21.7307 10.3534ZM17.2501 17.67C17.7384 17.67 18.1347 18.0607 18.1347 18.5421C18.1347 19.0235 17.7384 19.4142 17.2501 19.4142C16.7618 19.4142 16.3607 19.0235 16.3607 18.5421C16.3607 18.0607 16.7511 17.67 17.2395 17.67H17.2501ZM12.0161 17.67C12.5044 17.67 12.9007 18.0607 12.9007 18.5421C12.9007 19.0235 12.5044 19.4142 12.0161 19.4142C11.5278 19.4142 11.1268 19.0235 11.1268 18.5421C11.1268 18.0607 11.5172 17.67 12.0055 17.67H12.0161ZM6.77119 17.67C7.2595 17.67 7.6558 18.0607 7.6558 18.5421C7.6558 19.0235 7.2595 19.4142 6.77119 19.4142C6.28289 19.4142 5.88068 19.0235 5.88068 18.5421C5.88068 18.0607 6.27227 17.67 6.76058 17.67H6.77119ZM17.2501 13.1506C17.7384 13.1506 18.1347 13.5413 18.1347 14.0227C18.1347 14.5041 17.7384 14.8948 17.2501 14.8948C16.7618 14.8948 16.3607 14.5041 16.3607 14.0227C16.3607 13.5413 16.7511 13.1506 17.2395 13.1506H17.2501ZM12.0161 13.1506C12.5044 13.1506 12.9007 13.5413 12.9007 14.0227C12.9007 14.5041 12.5044 14.8948 12.0161 14.8948C11.5278 14.8948 11.1268 14.5041 11.1268 14.0227C11.1268 13.5413 11.5172 13.1506 12.0055 13.1506H12.0161ZM6.77119 13.1506C7.2595 13.1506 7.6558 13.5413 7.6558 14.0227C7.6558 14.5041 7.2595 14.8948 6.77119 14.8948C6.28289 14.8948 5.88068 14.5041 5.88068 14.0227C5.88068 13.5413 6.27227 13.1506 6.76058 13.1506H6.77119ZM15.884 3.58022H8.12536L8.12571 4.69882C8.12571 5.18021 7.7294 5.5709 7.2411 5.5709C6.75279 5.5709 6.35649 5.18021 6.35649 4.69882L6.35586 3.60661C3.71354 3.82544 2.26922 5.40446 2.26922 8.10822V8.60926H21.7307L21.7307 8.10822C21.7354 6.67218 21.3438 5.5559 20.5665 4.78847C19.8842 4.11383 18.8868 3.71091 17.6548 3.60717L17.6538 4.69882C17.6538 5.18021 17.2575 5.5709 16.7692 5.5709C16.2809 5.5709 15.8846 5.18021 15.8846 4.69882L15.884 3.58022Z" fill="#4F5B62"/>
</svg>
