<svg width="24" height="24" viewBox="0 0 24 24" fill="none" xmlns="http://www.w3.org/2000/svg">
<path fill-rule="evenodd" clip-rule="evenodd" d="M11.1853 0.541103C11.6535 0.541103 12.0335 0.920514 12.0335 1.388C12.0335 1.85549 11.6535 2.2349 11.1853 2.2349H6.95664C4.03422 2.2349 2.14664 4.23359 2.14664 7.32647V16.7146C2.14664 19.8075 4.03422 21.8062 6.95664 21.8062H16.9363C19.8587 21.8062 21.7474 19.8075 21.7474 16.7146V12.1662C21.7474 11.6987 22.1274 11.3193 22.5956 11.3193C23.0639 11.3193 23.4439 11.6987 23.4439 12.1662V16.7146C23.4439 20.773 20.8279 23.5 16.9363 23.5H6.95664C3.06499 23.5 0.450195 20.773 0.450195 16.7146V7.32647C0.450195 3.26812 3.06499 0.541103 6.95664 0.541103H11.1853ZM21.0356 1.53322L22.412 2.90745C23.0826 3.57594 23.4513 4.46462 23.4502 5.41089C23.4502 6.35716 23.0815 7.24471 22.412 7.91207L13.9195 16.3912C13.2964 17.0134 12.4663 17.3567 11.5841 17.3567H7.3475C7.11905 17.3567 6.89964 17.2641 6.74017 17.1004C6.58071 16.9378 6.49362 16.7176 6.49928 16.4883L6.60559 12.2211C6.62708 11.3719 6.96976 10.5736 7.57143 9.97173H7.57256L16.0243 1.53322C17.4063 0.155594 19.6535 0.155594 21.0356 1.53322ZM15.328 4.62271L8.77139 11.1698C8.47847 11.4623 8.31222 11.8507 8.30204 12.2629L8.21721 15.6629H11.5841C12.0139 15.6629 12.4165 15.4969 12.7207 15.1932L19.317 8.6054L15.328 4.62271ZM17.2231 2.7313L16.5269 3.42463L20.5158 7.40845L21.2131 6.71399C21.5615 6.36619 21.7537 5.90322 21.7537 5.41089C21.7537 4.91743 21.5615 4.45333 21.2131 4.10554L19.8368 2.7313C19.1163 2.01426 17.9446 2.01426 17.2231 2.7313Z" fill="#4F5B62"/>
</svg>
