<svg width="26" height="23" viewBox="0 0 26 23" fill="none" xmlns="http://www.w3.org/2000/svg">
<path fill-rule="evenodd" clip-rule="evenodd" d="M19.0463 0C22.9903 0 25.9643 3.20467 25.9643 7.45436V15.5551C25.9643 17.7301 25.1921 19.6951 23.7886 21.0892C22.5296 22.3383 20.8963 23 19.0652 23H7.39549C5.56798 23 3.9359 22.3395 2.67572 21.0892C1.27222 19.6951 0.5 17.7301 0.5 15.5551V7.45436C0.5 3.20467 3.47399 0 7.41799 0H19.0463ZM19.0463 1.76923H7.41799C4.43927 1.76923 2.27658 4.16005 2.27658 7.45436V15.5551C2.27658 17.2571 2.86403 18.7774 3.92998 19.8354C4.84906 20.7495 6.04884 21.2308 7.39904 21.2308H19.0463C19.0487 21.2284 19.0581 21.2308 19.0652 21.2308C20.4166 21.2308 21.6152 20.7495 22.5343 19.8354C23.6014 18.7774 24.1877 17.2571 24.1877 15.5551V7.45436C24.1877 4.16005 22.025 1.76923 19.0463 1.76923ZM20.9129 7.22884C21.222 7.60746 21.164 8.16417 20.7838 8.4732L15.5204 12.7335C14.8547 13.2596 14.0588 13.5226 13.2641 13.5226C12.4718 13.5226 11.6818 13.2619 11.0209 12.7406L5.70893 8.47556C5.32637 8.16889 5.26715 7.61099 5.57391 7.2312C5.88303 6.85258 6.44206 6.79243 6.82343 7.09792L12.1307 11.3582C12.7975 11.8843 13.7367 11.8843 14.4082 11.3535L19.6622 7.10028C20.0435 6.79007 20.6026 6.84905 20.9129 7.22884Z" fill="#4F5B62"/>
</svg>
