<?xml version="1.0" standalone="no"?>
<!DOCTYPE svg PUBLIC "-//W3C//DTD SVG 20010904//EN"
 "http://www.w3.org/TR/2001/REC-SVG-20010904/DTD/svg10.dtd">
<svg version="1.0" xmlns="http://www.w3.org/2000/svg"
 width="512.000000pt" height="512.000000pt" viewBox="0 0 512.000000 512.000000"
 preserveAspectRatio="xMidYMid meet">
<metadata>
Created by potrace 1.14, written by Peter Selinger 2001-2017
</metadata>
<g transform="translate(0.000000,512.000000) scale(0.100000,-0.100000)"
fill="#000000" stroke="none">
<path d="M2378 5115 c-2 -1 -34 -5 -73 -9 -38 -3 -97 -10 -130 -16 -33 -6 -76
-13 -95 -16 -144 -23 -436 -115 -565 -177 -16 -8 -48 -23 -70 -33 -22 -10 -80
-40 -130 -68 -539 -299 -964 -802 -1170 -1385 -25 -73 -72 -232 -79 -271 -2
-14 -9 -46 -15 -71 -6 -25 -13 -61 -15 -80 -3 -19 -7 -50 -10 -69 -25 -150
-29 -520 -7 -675 26 -181 76 -402 107 -472 8 -17 14 -35 14 -39 0 -22 81 -214
139 -329 187 -370 472 -699 811 -937 308 -216 691 -372 1050 -428 41 -6 86
-13 100 -16 133 -22 524 -22 635 1 11 2 43 7 70 10 61 7 247 48 335 74 274 80
592 240 813 408 470 356 807 867 946 1435 17 68 33 141 36 163 4 22 8 47 10
55 5 17 12 83 23 213 12 136 7 345 -13 500 -12 95 -49 290 -59 305 -3 5 -8 24
-11 43 -16 92 -121 362 -198 509 -136 258 -260 424 -476 640 -396 394 -874
630 -1451 716 -88 13 -511 29 -522 19z"/>
</g>
</svg>
