<svg width="24" height="24" viewBox="0 0 24 24" fill="none" xmlns="http://www.w3.org/2000/svg">
<path fill-rule="evenodd" clip-rule="evenodd" d="M17.0129 0.5C20.893 0.5 23.5 3.22363 23.5 7.27698V16.723C23.5 20.7764 20.893 23.5 17.0129 23.5H6.98707C3.10702 23.5 0.5 20.7764 0.5 16.723V7.27698C0.5 3.22363 3.10702 0.5 6.98707 0.5H17.0129ZM17.0129 2.10465H6.98707C4.02167 2.10465 2.10465 4.134 2.10465 7.27698V16.723C2.10465 19.866 4.02167 21.8953 6.98707 21.8953H17.0129C19.9794 21.8953 21.8953 19.866 21.8953 16.723V7.27698C21.8953 4.134 19.9794 2.10465 17.0129 2.10465ZM7.04815 9.27477C7.49104 9.27477 7.85048 9.63421 7.85048 10.0771V17.4157C7.85048 17.8586 7.49104 18.218 7.04815 18.218C6.60527 18.218 6.24583 17.8586 6.24583 17.4157V10.0771C6.24583 9.63421 6.60527 9.27477 7.04815 9.27477ZM12.0408 5.76165C12.4836 5.76165 12.8431 6.12109 12.8431 6.56398V17.4146C12.8431 17.8575 12.4836 18.217 12.0408 18.217C11.5979 18.217 11.2384 17.8575 11.2384 17.4146V6.56398C11.2384 6.12109 11.5979 5.76165 12.0408 5.76165ZM16.9513 13.1527C17.3942 13.1527 17.7536 13.5121 17.7536 13.955V17.4146C17.7536 17.8575 17.3942 18.217 16.9513 18.217C16.5084 18.217 16.149 17.8575 16.149 17.4146V13.955C16.149 13.5121 16.5084 13.1527 16.9513 13.1527Z" fill="#4F5B62"/>
</svg>
