<svg width="9" height="9" viewBox="0 0 9 9" fill="none" xmlns="http://www.w3.org/2000/svg">
<path fill-rule="evenodd" clip-rule="evenodd" d="M7.78143 8.01648C7.93668 8.01648 8.06268 8.15648 8.06268 8.32898C8.06268 8.50148 7.93668 8.64148 7.78143 8.64148H5.06155C4.9063 8.64148 4.7803 8.50148 4.7803 8.32898C4.7803 8.15648 4.9063 8.01648 5.06155 8.01648H7.78143ZM6.0436 1.02235C6.06235 1.0386 6.68973 1.58027 6.68973 1.58027C6.91773 1.7311 7.09585 2.00068 7.16335 2.31985C7.23048 2.63568 7.18173 2.96152 7.02535 3.23693C7.02431 3.23877 7.02327 3.24059 7.01965 3.24599L7.01683 3.25016C6.99144 3.28733 6.8811 3.44235 6.32421 4.2176C6.31904 4.22776 6.31318 4.23727 6.30678 4.24652C6.29739 4.26015 6.28717 4.27268 6.27626 4.28408C6.23827 4.33722 6.19815 4.39306 6.15597 4.45177L6.0705 4.57071C5.89414 4.81612 5.68495 5.10712 5.43677 5.45228L5.30941 5.62941C4.83028 6.29572 4.21666 7.14885 3.4306 8.24152C3.25848 8.47985 3.00048 8.6186 2.72335 8.62235L1.35873 8.64152H1.35498C1.22485 8.64152 1.1116 8.54235 1.08123 8.4011L0.774103 6.95485C0.710728 6.65527 0.773728 6.3461 0.946603 6.1061L4.4791 1.19693C4.4806 1.19527 4.48173 1.19318 4.48323 1.19152C4.8706 0.676934 5.5711 0.601101 6.0436 1.02235ZM4.08525 2.74458L1.38573 6.49652C1.3216 6.58568 1.29798 6.70068 1.3216 6.8111L1.57698 8.01318L2.7166 7.99735C2.82498 7.9961 2.9251 7.94235 2.99148 7.85069C3.33328 7.37551 3.76287 6.77828 4.20455 6.16418L4.36081 5.9469L4.51734 5.72926C4.93156 5.15329 5.34077 4.58419 5.68317 4.10786L4.08525 2.74458ZM4.91635 1.59027L4.43663 2.25625L6.03442 3.61914C6.34196 3.19112 6.54427 2.90922 6.56298 2.88235C6.62448 2.77152 6.64848 2.61485 6.61623 2.46402C6.58323 2.30943 6.4966 2.17818 6.37173 2.09443C6.3451 2.07402 5.71323 1.52902 5.69373 1.51193C5.45598 1.30027 5.1091 1.33693 4.91635 1.59027Z" fill="#F1F1F1"/>
</svg>
