<svg width="54" height="85" viewBox="0 0 54 85" fill="none" xmlns="http://www.w3.org/2000/svg">
<path d="M53.2578 20.6844C54.3197 25.2582 54.1452 30.0281 52.7517 34.514C51.3583 38.9999 48.795 43.0436 45.3199 46.2383C43.5202 47.904 41.4914 49.3096 39.2938 50.4134C37.3105 51.4295 35.2053 52.1934 33.0282 52.6869C27.8304 53.8705 22.3945 53.5031 17.4077 51.631C12.421 49.759 8.10734 46.4664 5.01208 42.1695C1.91681 37.8726 0.178938 32.7643 0.0181596 27.4905C-0.142619 22.2167 1.28092 17.0141 4.1088 12.5405C6.93669 8.06694 11.0419 4.52318 15.9056 2.35728C20.7692 0.191384 26.1728 -0.499407 31.4333 0.37224C36.6937 1.24389 41.5748 3.63884 45.4595 7.25431C49.3442 10.8698 52.0579 15.5434 53.2578 20.6844Z" fill="url(#paint0_linear_1318_2482)"/>
<path d="M53.2573 20.6845C54.3193 25.2583 54.1447 30.0281 52.7513 34.514C51.3578 38.9999 48.7946 43.0436 45.3195 46.2383C43.5197 47.904 41.491 49.3096 39.2934 50.4134C33.3194 50.2412 27.5715 48.1151 22.9489 44.3677C18.3263 40.6203 15.0896 35.463 13.7452 29.7024C12.4007 23.9418 13.0243 17.9029 15.5185 12.5302C18.0126 7.15748 22.2365 2.75405 27.5296 0.00864096C33.5262 0.142616 39.307 2.24756 43.9602 5.99146C48.6134 9.73535 51.8743 14.9051 53.2284 20.6853L53.2573 20.6845Z" fill="url(#paint1_linear_1318_2482)"/>
<path d="M53.2581 20.6844C54.32 25.2582 54.1455 30.028 52.752 34.5139C51.3586 38.9998 48.7953 43.0436 45.3202 46.2383C40.7902 44.8622 36.7056 42.3321 33.4759 38.9018C30.2462 35.4715 27.9849 31.2614 26.9189 26.6939C25.853 22.1264 26.0197 17.3619 27.4023 12.8782C28.785 8.39449 31.3351 4.34919 34.7968 1.14796C39.3378 2.51295 43.435 5.0374 46.676 8.4671C49.9169 11.8968 52.1872 16.1107 53.2581 20.6844Z" fill="url(#paint2_linear_1318_2482)"/>
<path d="M53.2576 20.6844C54.7442 27.0216 53.8251 33.6782 50.675 39.3888C45.3389 35.5981 41.5807 30.015 40.1029 23.6829C38.6251 17.3508 39.5287 10.7031 42.6449 4.98207C48.0067 8.7543 51.7829 14.3415 53.2576 20.6844Z" fill="url(#paint3_linear_1318_2482)"/>
<path d="M11.3576 65.1741V71.3715C11.3576 71.7498 11.2024 72.1126 10.9261 72.38C10.6497 72.6475 10.275 72.7978 9.88421 72.7978H9.3064C8.9161 72.7963 8.54222 72.6456 8.26623 72.3784C7.99025 72.1113 7.83452 71.7493 7.833 71.3715V65.1853C7.82015 64.4266 7.9353 63.6709 8.17391 62.948C8.40021 62.315 8.77386 61.7409 9.26596 61.27C9.73738 60.7861 10.3087 60.4035 10.9428 60.1472C11.5769 59.8908 12.2596 59.7665 12.9466 59.7822C13.6835 59.7764 14.4135 59.9192 15.0902 60.2017C15.757 60.4896 16.3491 60.9176 16.8236 61.4546C17.2483 61.9209 17.576 62.4621 17.7886 63.0487C18.0008 63.7417 18.0983 64.4628 18.0775 65.1853V71.3715C18.0775 71.7498 17.9223 72.1126 17.6459 72.38C17.3696 72.6475 16.9949 72.7978 16.6041 72.7978H16.0263C15.6355 72.7978 15.2607 72.6475 14.9844 72.38C14.7081 72.1126 14.5529 71.7498 14.5529 71.3715V64.8441C14.5855 64.3879 14.4436 63.9359 14.1542 63.5745C14.0052 63.4261 13.8247 63.3108 13.6252 63.2364C13.4257 63.1621 13.2119 63.1305 12.9986 63.1438C12.7827 63.1391 12.5682 63.1785 12.3691 63.2595C12.1699 63.3404 11.9907 63.4611 11.843 63.6136C11.5355 63.9528 11.3742 64.3932 11.3923 64.8441L11.3576 65.1741Z" fill="#1D61FF"/>
<path d="M25.5094 69.9733H26.7811C26.981 69.9733 27.179 70.0099 27.3637 70.0808C27.5484 70.1518 27.7162 70.2558 27.8576 70.3869C27.999 70.518 28.1111 70.6737 28.1876 70.845C28.2641 71.0163 28.3035 71.1999 28.3035 71.3854C28.3035 71.5708 28.2641 71.7544 28.1876 71.9257C28.1111 72.097 27.999 72.2527 27.8576 72.3838C27.7162 72.515 27.5484 72.619 27.3637 72.6899C27.179 72.7609 26.981 72.7974 26.7811 72.7974H23.4317C22.8927 72.8047 22.358 72.7069 21.8623 72.5104C21.3666 72.3139 20.9208 72.0231 20.554 71.6567C20.2451 71.3326 20.006 70.9567 19.8495 70.5492C19.6849 70.1689 19.5998 69.763 19.5987 69.3531C19.5956 68.9427 19.6746 68.5353 19.8316 68.1515C20.312 67.0988 20.3796 65.9232 20.0226 64.8291C19.8922 64.4724 19.8256 64.0983 19.8256 63.7216C19.8273 63.3044 19.9061 62.8905 20.0584 62.4979C20.2049 62.1057 20.4275 61.7416 20.7152 61.4236C20.9897 61.1093 21.326 60.8463 21.7063 60.6484C22.4078 60.2987 23.197 60.1286 23.9929 60.1555H26.7811C27.1849 60.1555 27.5721 60.3043 27.8576 60.5691C28.1431 60.8339 28.3035 61.1931 28.3035 61.5676C28.3035 61.9421 28.1431 62.3012 27.8576 62.566C27.5721 62.8308 27.1849 62.9796 26.7811 62.9796H24.99C24.6662 62.9773 24.3524 63.0835 24.1064 63.2786C23.9978 63.3667 23.9115 63.4758 23.8537 63.5984C23.7959 63.7209 23.768 63.8537 23.772 63.9874C23.7678 64.1292 23.799 64.27 23.8632 64.3987C23.9275 64.5274 24.0229 64.6406 24.1422 64.7294C24.3889 64.9352 24.712 65.0444 25.0437 65.034H26.805C27.0049 65.034 27.2029 65.0705 27.3876 65.1415C27.5723 65.2124 27.7401 65.3164 27.8815 65.4476C28.0229 65.5787 28.135 65.7343 28.2115 65.9057C28.288 66.077 28.3274 66.2606 28.3274 66.446C28.3356 66.6379 28.3014 66.8294 28.227 67.0086C28.1527 67.1879 28.0397 67.3512 27.8949 67.4885C27.7502 67.6259 27.5767 67.7344 27.3852 67.8075C27.1937 67.8805 26.9881 67.9166 26.7811 67.9134H25.187C24.8524 67.9105 24.5265 68.0119 24.2616 68.2014C24.1489 68.2944 24.0591 68.4088 23.9983 68.5368C23.9375 68.6648 23.9072 68.8035 23.9093 68.9434C23.9077 69.0816 23.9384 69.2184 23.9992 69.3446C24.06 69.4708 24.1495 69.5833 24.2616 69.6743C24.497 69.875 24.8077 69.9824 25.1273 69.9733H25.5094Z" fill="#1D61FF"/>
<path d="M30.2267 67.4371V61.5985C30.2237 61.4097 30.2591 61.2222 30.3308 61.0469C30.4025 60.8716 30.5091 60.7121 30.6444 60.5775C30.7797 60.443 30.941 60.3361 31.1189 60.2632C31.2968 60.1903 31.4878 60.1527 31.6806 60.1528H32.2508C32.6363 60.1528 33.0061 60.3027 33.2788 60.5697C33.5514 60.8366 33.7046 61.1986 33.7046 61.5761V67.5655C33.7046 67.6939 33.7046 67.7832 33.7046 67.839V68.2018C33.7388 69.2624 34.1892 69.7927 35.0616 69.7927C35.3297 69.7997 35.5939 69.7278 35.8199 69.5861C36.0401 69.4531 36.2148 69.2588 36.3216 69.028C36.4527 68.6435 36.5088 68.2382 36.4869 67.8334V61.5985C36.4839 61.4115 36.5185 61.2259 36.5888 61.052C36.6591 60.8782 36.7637 60.7197 36.8966 60.5854C37.0295 60.4512 37.1881 60.3438 37.3633 60.2696C37.5386 60.1954 37.727 60.1557 37.918 60.1528H38.4881C38.8737 60.1528 39.2435 60.3027 39.5162 60.5697C39.7888 60.8366 39.942 61.1986 39.942 61.5761V67.8669C39.9385 68.1415 39.9576 68.4159 39.999 68.6875C40.0264 68.8761 40.0986 69.0558 40.21 69.2122C40.3414 69.4006 40.52 69.5529 40.7288 69.6544C40.9375 69.756 41.1693 69.8035 41.4021 69.7923C41.6349 69.7811 41.8609 69.7116 42.0584 69.5905C42.256 69.4694 42.4185 69.3007 42.5305 69.1005C42.6706 68.7277 42.7289 68.3302 42.7015 67.9339V61.5985C42.6985 61.4106 42.7335 61.224 42.8045 61.0495C42.8755 60.8749 42.9811 60.7159 43.1152 60.5815C43.2493 60.4471 43.4092 60.34 43.5858 60.2664C43.7624 60.1929 43.9521 60.1542 44.144 60.1528H44.7141C45.0997 60.1528 45.4695 60.3027 45.7421 60.5697C46.0148 60.8366 46.168 61.1986 46.168 61.5761V67.9953C46.1742 68.6909 46.0645 69.3829 45.843 70.0439C45.6216 70.6205 45.2821 71.1467 44.8452 71.59C44.3579 72.085 43.7745 72.4796 43.1293 72.7509C42.4842 73.0221 41.7901 73.1645 41.088 73.1697C40.749 73.17 40.4108 73.1364 40.0788 73.0692C38.828 72.8181 37.5382 72.8181 36.2874 73.0692C35.38 73.243 34.4415 73.1752 33.57 72.8728C32.6985 72.5704 31.9259 72.0445 31.3328 71.35C31.1466 71.1146 30.9807 70.8644 30.8368 70.602C30.7014 70.3486 30.5907 70.0832 30.5061 69.8094C30.4098 69.5207 30.343 69.2235 30.3066 68.9219C30.2565 68.5762 30.2336 68.2272 30.2381 67.8781L30.2267 67.4371Z" fill="#1D61FF"/>
<path d="M10.3304 79.1516V83.1311C10.3304 83.3826 10.2284 83.6238 10.0469 83.8017C9.86536 83.9795 9.61918 84.0795 9.36248 84.0795H8.98291C8.72622 84.0795 8.48003 83.9795 8.29851 83.8017C8.117 83.6238 8.01503 83.3826 8.01503 83.1311V78.9471C8.01076 78.615 8.04257 78.2833 8.10992 77.9578C8.1651 77.6809 8.25965 77.413 8.3908 77.1619C8.52746 76.9127 8.69581 76.6815 8.89182 76.4739C9.20982 76.1374 9.59824 75.8723 10.0305 75.6966C10.459 75.5134 10.9218 75.4196 11.3893 75.4214C11.5225 75.4214 11.6556 75.4288 11.7879 75.4437C12.8053 75.5628 13.8336 75.5628 14.851 75.4437C14.9845 75.4287 15.1189 75.4213 15.2533 75.4214C15.5861 75.4201 15.9173 75.4664 16.2364 75.559C16.78 75.7226 17.2767 76.0092 17.6863 76.3958L17.7812 76.4962C17.9971 76.7301 18.1796 76.9916 18.324 77.2735C18.4375 77.5094 18.5167 77.7598 18.5593 78.0173C18.6132 78.3018 18.6387 78.5908 18.6352 78.8801V83.1311C18.6352 83.3826 18.5332 83.6238 18.3517 83.8017C18.1702 83.9795 17.924 84.0795 17.6673 84.0795H17.2878C17.0311 84.0795 16.7849 83.9795 16.6034 83.8017C16.4218 83.6238 16.3199 83.3826 16.3199 83.1311V78.8913C16.342 78.6115 16.2897 78.3309 16.168 78.0768C16.0932 77.9522 15.9858 77.8495 15.8568 77.7793C15.717 77.7091 15.5622 77.6722 15.4051 77.6714C15.2472 77.6695 15.0915 77.7079 14.9534 77.783C14.8197 77.8624 14.7088 77.9737 14.6308 78.1066C14.5103 78.3767 14.4594 78.6717 14.4828 78.9657V83.1311C14.4828 83.3826 14.3808 83.6238 14.1993 83.8017C14.0178 83.9795 13.7716 84.0795 13.5149 84.0795H13.1353C12.8786 84.0795 12.6324 83.9795 12.4509 83.8017C12.2694 83.6238 12.1674 83.3826 12.1674 83.1311V78.9657C12.1863 78.672 12.1356 78.3779 12.0194 78.1066C11.9457 77.9706 11.8337 77.8583 11.6968 77.783C11.5577 77.7071 11.4005 77.6686 11.2413 77.6714C11.0503 77.6649 10.8624 77.7198 10.7061 77.8276C10.5556 77.9297 10.4478 78.0815 10.4025 78.2553C10.3613 78.431 10.3397 78.6106 10.338 78.7909V78.8987C10.3346 78.9358 10.3346 78.9732 10.338 79.0103L10.3304 79.1516Z" fill="#1D61FF"/>
<path d="M19.6221 79.8322C19.6198 79.0559 19.8263 78.2927 20.2208 77.6195C20.6153 76.9463 21.1838 76.3868 21.8692 75.9974C22.5546 75.6079 23.3326 75.4023 24.1248 75.4012C24.9171 75.4001 25.6957 75.6035 26.3822 75.991C27.0687 76.3785 27.6388 76.9364 28.0353 77.6085C28.4318 78.2806 28.6405 79.0432 28.6405 79.8195C28.6405 80.5958 28.4317 81.3584 28.0353 82.0305C27.6388 82.7026 27.0686 83.2605 26.3821 83.648C25.6973 84.0376 24.9194 84.2428 24.1275 84.2428C23.3356 84.2428 22.5577 84.0376 21.8729 83.648C21.1873 83.2615 20.6181 82.7043 20.2228 82.0329C19.8276 81.3616 19.6203 80.5998 19.6221 79.8247V79.8322ZM21.926 79.8322C21.9251 80.2116 22.0287 80.5842 22.2259 80.9107C22.4191 81.2357 22.6951 81.5061 23.0268 81.6955C23.3604 81.8877 23.7404 81.9891 24.1275 81.9891C24.5146 81.9891 24.8946 81.8877 25.2282 81.6955C25.5616 81.5056 25.8381 81.2331 26.0299 80.9054C26.2218 80.5777 26.3223 80.2063 26.3214 79.8285C26.3204 79.4507 26.218 79.0797 26.0245 78.753C25.8309 78.4262 25.5531 78.1551 25.2188 77.9668C24.8845 77.7786 24.5055 77.6798 24.1199 77.6805C23.7343 77.6811 23.3557 77.7812 23.0221 77.9705C22.6884 78.1599 22.4115 78.432 22.2191 78.7594C22.0267 79.0868 21.9257 79.4581 21.926 79.8359V79.8322Z" fill="#1D61FF"/>
<path d="M29.3272 79.8322C29.3276 79.0573 29.5362 78.2962 29.932 77.6253C30.3278 76.9545 30.8968 76.3975 31.5819 76.0104C32.267 75.6233 33.044 75.4198 33.8349 75.4202C34.6257 75.4206 35.4025 75.6249 36.0872 76.0127C36.7698 76.3988 37.3366 76.9542 37.7307 77.6231C38.0279 78.1241 38.2211 78.6777 38.2994 79.252C38.3776 79.8264 38.3393 80.4103 38.1866 80.9702C38.0339 81.53 37.7698 82.0547 37.4095 82.5143C37.0492 82.9738 36.5998 83.3591 36.0872 83.648C35.4038 84.0447 34.6231 84.2517 33.8288 84.2468C33.2372 84.2473 32.6512 84.1334 32.1046 83.9117C31.558 83.69 31.0614 83.3648 30.6432 82.9547C30.225 82.5446 29.8935 82.0577 29.6677 81.5219C29.4419 80.9861 29.3262 80.4119 29.3272 79.8322ZM31.6311 79.8322C31.6283 80.2119 31.732 80.585 31.931 80.9108C32.1242 81.2358 32.4001 81.5061 32.7318 81.6955C33.0655 81.8878 33.4455 81.9892 33.8326 81.9892C34.2196 81.9892 34.5997 81.8878 34.9333 81.6955C35.2245 81.53 35.4729 81.3012 35.6595 81.0267C35.8461 80.7522 35.9659 80.4394 36.0096 80.1124C36.0533 79.7854 36.0197 79.4529 35.9115 79.1406C35.8033 78.8283 35.6233 78.5445 35.3855 78.3112C35.1476 78.0778 34.8582 77.9011 34.5397 77.7947C34.2211 77.6883 33.8818 77.655 33.548 77.6974C33.2142 77.7398 32.8948 77.8567 32.6144 78.0392C32.3341 78.2217 32.1002 78.4649 31.931 78.75C31.7315 79.0769 31.6278 79.4513 31.6311 79.8322Z" fill="#1D61FF"/>
<path d="M41.6482 79.0103V83.1311C41.6482 83.3826 41.5462 83.6238 41.3647 83.8017C41.1832 83.9795 40.937 84.0795 40.6803 84.0795H40.3007C40.044 84.0795 39.7978 83.9795 39.6163 83.8017C39.4348 83.6238 39.3328 83.3826 39.3328 83.1311V79.0177C39.3234 78.5134 39.3977 78.011 39.553 77.5301C39.7046 77.1106 39.9497 76.7295 40.2704 76.4143C40.5803 76.0929 40.9557 75.8388 41.3722 75.6684C41.7886 75.498 42.237 75.4151 42.6882 75.4251C43.1735 75.4212 43.6543 75.5162 44.1001 75.704C44.5378 75.896 44.9267 76.1805 45.2388 76.5371C45.5205 76.8458 45.7372 77.206 45.8765 77.597C46.0159 78.0578 46.08 78.5373 46.0663 79.0177V83.1311C46.0663 83.3826 45.9643 83.6238 45.7828 83.8017C45.6013 83.9795 45.3551 84.0795 45.0984 84.0795H44.7188C44.4621 84.0795 44.2159 83.9795 44.0344 83.8017C43.8529 83.6238 43.7509 83.3826 43.7509 83.1311V78.7909C43.7717 78.4882 43.68 78.1883 43.4928 77.9466C43.3943 77.8488 43.2757 77.7726 43.1448 77.7232C43.0139 77.6739 42.8738 77.6524 42.7337 77.6603C42.5918 77.6564 42.4507 77.6823 42.3197 77.7362C42.1888 77.7901 42.0712 77.8707 41.9746 77.9727C41.7699 78.1968 41.6623 78.4903 41.6747 78.7909L41.6482 79.0103Z" fill="#1D61FF"/>
<defs>
<linearGradient id="paint0_linear_1318_2482" x1="3.92042" y1="46.4989" x2="57.1262" y2="31.6831" gradientUnits="userSpaceOnUse">
<stop stop-color="#3A87FF"/>
<stop offset="0.828125" stop-color="#003AFF"/>
</linearGradient>
<linearGradient id="paint1_linear_1318_2482" x1="16.8699" y1="43.0911" x2="56.9858" y2="32.3296" gradientUnits="userSpaceOnUse">
<stop stop-color="#3A87FF"/>
<stop offset="0.828125" stop-color="#003AFF"/>
</linearGradient>
<linearGradient id="paint2_linear_1318_2482" x1="29.7142" y1="38.671" x2="56.5219" y2="31.7192" gradientUnits="userSpaceOnUse">
<stop stop-color="#3A87FF"/>
<stop offset="0.828125" stop-color="#003AFF"/>
</linearGradient>
<linearGradient id="paint3_linear_1318_2482" x1="42.2359" y1="32.8222" x2="55.6556" y2="29.4628" gradientUnits="userSpaceOnUse">
<stop stop-color="#3A87FF"/>
<stop offset="0.828125" stop-color="#003AFF"/>
</linearGradient>
</defs>
</svg>
