<svg width="23" height="25" viewBox="0 0 23 25" fill="none" xmlns="http://www.w3.org/2000/svg">
<path fill-rule="evenodd" clip-rule="evenodd" d="M16.2692 0C16.7575 0 17.1538 0.390696 17.1538 0.872089L17.1543 1.85791C18.8765 1.97431 20.3068 2.55586 21.3192 3.55591C22.4243 4.65009 23.0058 6.22334 23 8.11054V18.7186C23 22.593 20.5041 25 16.488 25H6.51192C2.49579 25 0 22.5593 0 18.6303V8.10822C0 4.45381 2.22575 2.10806 5.85576 1.85831L5.85649 0.872089C5.85649 0.390696 6.25279 0 6.7411 0C7.2294 0 7.62571 0.390696 7.62571 0.872089L7.62536 1.83604H15.384L15.3846 0.872089C15.3846 0.390696 15.7809 0 16.2692 0ZM21.2307 10.3534H1.76922V18.6303C1.76922 21.614 3.45353 23.2558 6.51192 23.2558H16.488C19.5464 23.2558 21.2307 21.6442 21.2307 18.7186L21.2307 10.3534ZM16.7501 17.67C17.2384 17.67 17.6347 18.0607 17.6347 18.5421C17.6347 19.0235 17.2384 19.4142 16.7501 19.4142C16.2618 19.4142 15.8607 19.0235 15.8607 18.5421C15.8607 18.0607 16.2511 17.67 16.7395 17.67H16.7501ZM11.5161 17.67C12.0044 17.67 12.4007 18.0607 12.4007 18.5421C12.4007 19.0235 12.0044 19.4142 11.5161 19.4142C11.0278 19.4142 10.6268 19.0235 10.6268 18.5421C10.6268 18.0607 11.0172 17.67 11.5055 17.67H11.5161ZM6.27119 17.67C6.7595 17.67 7.1558 18.0607 7.1558 18.5421C7.1558 19.0235 6.7595 19.4142 6.27119 19.4142C5.78289 19.4142 5.38068 19.0235 5.38068 18.5421C5.38068 18.0607 5.77227 17.67 6.26058 17.67H6.27119ZM16.7501 13.1506C17.2384 13.1506 17.6347 13.5413 17.6347 14.0227C17.6347 14.5041 17.2384 14.8948 16.7501 14.8948C16.2618 14.8948 15.8607 14.5041 15.8607 14.0227C15.8607 13.5413 16.2511 13.1506 16.7395 13.1506H16.7501ZM11.5161 13.1506C12.0044 13.1506 12.4007 13.5413 12.4007 14.0227C12.4007 14.5041 12.0044 14.8948 11.5161 14.8948C11.0278 14.8948 10.6268 14.5041 10.6268 14.0227C10.6268 13.5413 11.0172 13.1506 11.5055 13.1506H11.5161ZM6.27119 13.1506C6.7595 13.1506 7.1558 13.5413 7.1558 14.0227C7.1558 14.5041 6.7595 14.8948 6.27119 14.8948C5.78289 14.8948 5.38068 14.5041 5.38068 14.0227C5.38068 13.5413 5.77227 13.1506 6.26058 13.1506H6.27119ZM15.384 3.58022H7.62536L7.62571 4.69882C7.62571 5.18021 7.2294 5.5709 6.7411 5.5709C6.25279 5.5709 5.85649 5.18021 5.85649 4.69882L5.85586 3.60661C3.21354 3.82544 1.76922 5.40446 1.76922 8.10822V8.60926H21.2307L21.2307 8.10822C21.2354 6.67218 20.8438 5.5559 20.0665 4.78847C19.3842 4.11383 18.3868 3.71091 17.1548 3.60717L17.1538 4.69882C17.1538 5.18021 16.7575 5.5709 16.2692 5.5709C15.7809 5.5709 15.3846 5.18021 15.3846 4.69882L15.384 3.58022Z" fill="#4F5B62"/>
</svg>
