<svg width="21" height="25" viewBox="0 0 21 25" fill="none" xmlns="http://www.w3.org/2000/svg">
<path d="M14.1801 0.750003C14.656 0.748806 15.0323 1.14461 15.0334 1.67234L15.0345 2.57189C18.1225 2.83096 20.1623 5.08343 20.1656 8.5377L20.1778 18.6486C20.1822 22.4147 17.9719 24.732 14.4291 24.738L5.7752 24.75C2.25453 24.7548 0.0166166 22.3824 0.0121895 18.6055L7.42923e-06 8.61326C-0.00441224 5.13621 1.96345 2.88973 5.05137 2.58629L5.05026 1.68674C5.04915 1.159 5.41439 0.761999 5.90138 0.761999C6.38836 0.7608 6.7536 1.1566 6.75471 1.68434L6.75581 2.52392L13.3301 2.51432L13.329 1.67474C13.3279 1.14701 13.6931 0.751205 14.1801 0.750003ZM14.6317 17.7803H14.6206C14.1115 17.7935 13.7031 18.2504 13.7142 18.8022C13.7153 19.3539 14.1259 19.8085 14.635 19.8204C15.1541 19.8192 15.5747 19.3623 15.5735 18.7986C15.5735 18.2348 15.1519 17.7803 14.6317 17.7803ZM5.51179 17.7815C5.00267 17.8055 4.60423 18.2624 4.60533 18.8142C4.62858 19.3659 5.04915 19.7977 5.55827 19.7725C6.05743 19.7485 6.45477 19.2915 6.43153 18.7398C6.42046 18.2001 6.00984 17.7803 5.51179 17.7815ZM10.0717 17.7755C9.56261 17.8007 9.16528 18.2564 9.16528 18.8082C9.18852 19.3599 9.6091 19.7905 10.1182 19.7665C10.6163 19.7413 11.0147 19.2855 10.9915 18.7326C10.9804 18.1941 10.5698 17.7743 10.0717 17.7755ZM5.50626 13.4636C4.99714 13.4876 4.5998 13.9446 4.60091 14.4963C4.62304 15.048 5.04473 15.4798 5.55385 15.4546C6.0519 15.4306 6.44923 14.9737 6.42599 14.422C6.41492 13.8822 6.00541 13.4624 5.50626 13.4636ZM10.0673 13.4217C9.55818 13.4456 9.15974 13.9026 9.16085 14.4543C9.18299 15.0061 9.60467 15.4366 10.1138 15.4127C10.6118 15.3875 11.0092 14.9317 10.987 14.38C10.9749 13.8402 10.5654 13.4205 10.0673 13.4217ZM14.6272 13.4276C14.1181 13.4396 13.7197 13.8834 13.7208 14.4351V14.4483C13.7319 15.0001 14.1524 15.4187 14.6627 15.4067C15.1607 15.3935 15.558 14.9365 15.547 14.3848C15.5237 13.857 15.1242 13.4265 14.6272 13.4276ZM13.3323 4.3614L6.75803 4.37099L6.75913 5.3413C6.75913 5.85824 6.395 6.26604 5.90802 6.26604C5.42103 6.26724 5.05469 5.86064 5.05469 5.3437L5.05358 4.42017C2.89536 4.65165 1.70114 6.00937 1.70445 8.61087L1.70557 8.98388L18.4622 8.95989V8.5401C18.4147 5.96139 17.206 4.60847 15.0368 4.40697L15.0379 5.33051C15.0379 5.84625 14.6627 6.25525 14.1867 6.25525C13.6998 6.25645 13.3334 5.84865 13.3334 5.33291L13.3323 4.3614Z" fill="white"/>
</svg>
