<svg width="10" height="10" viewBox="0 0 10 10" fill="none" xmlns="http://www.w3.org/2000/svg">
<path d="M7.23148 0.0799561C7.94058 0.476237 8.54817 1.0315 9.00653 1.70215C9.4649 2.3728 9.76155 3.14057 9.87321 3.94518C9.98487 4.74979 9.90849 5.56934 9.65007 6.33946C9.39165 7.10958 8.95823 7.80931 8.38383 8.38371C7.80943 8.9581 7.1097 9.39153 6.33958 9.64995C5.56946 9.90837 4.74992 9.98475 3.94531 9.87309C3.1407 9.76143 2.37292 9.46477 1.70227 9.00641C1.03162 8.54805 0.476359 7.94046 0.0800781 7.23136C2.08108 8.35156 4.65988 8.06356 6.36148 6.36196C8.06368 4.65976 8.35228 2.08156 7.23148 0.0799561Z" fill="#4F5B62"/>
</svg>
