<svg width="23" height="24" viewBox="0 0 23 24" fill="none" xmlns="http://www.w3.org/2000/svg">
<path fill-rule="evenodd" clip-rule="evenodd" d="M12.2452 0C13.0991 0 13.9292 0.340524 14.5243 0.932387C15.1183 1.52773 15.4462 2.34429 15.4212 3.17243C15.4236 3.35891 15.4868 3.57434 15.6013 3.76314C15.7909 4.07586 16.0903 4.29593 16.4457 4.38627C16.8011 4.47198 17.1732 4.42566 17.4892 4.24381C19.0158 3.39713 20.9586 3.90444 21.8304 5.37542L22.5735 6.62516C22.5925 6.65875 22.6092 6.69118 22.6235 6.72477C23.4131 8.17374 22.8859 9.99797 21.419 10.8308C21.2055 10.9501 21.0326 11.1168 20.9133 11.3184C20.7284 11.6299 20.6772 12.0006 20.7702 12.3411C20.8656 12.6886 21.0934 12.977 21.4142 13.1553C22.1381 13.5596 22.6784 14.2406 22.8943 15.0271C23.1101 15.8124 22.9921 16.6648 22.5711 17.3679L21.7792 18.6489C20.9073 20.1037 18.9645 20.6075 17.4535 19.7597C17.2519 19.6473 17.0193 19.5859 16.788 19.5801H16.7808C16.4361 19.5801 16.0819 19.7226 15.8243 19.9716C15.5631 20.2253 15.42 20.5635 15.4224 20.9225C15.414 22.624 13.9888 24 12.2452 24H10.7508C8.99884 24 7.57364 22.6171 7.57364 20.9156C7.57125 20.7059 7.50923 20.4882 7.39355 20.2994C7.2063 19.982 6.90337 19.755 6.55393 19.6647C6.20687 19.5743 5.82642 19.6241 5.51395 19.8002C4.76497 20.2056 3.88361 20.304 3.07739 20.084C2.27236 19.8627 1.57705 19.3253 1.16917 18.613L0.423768 17.3656C-0.448051 15.8969 0.070747 14.0148 1.58063 13.1669C2.00878 12.9272 2.27474 12.4801 2.27474 12.0006C2.27474 11.5211 2.00878 11.0728 1.58063 10.8331C0.0695545 9.9806 -0.448051 8.09382 0.422575 6.62516L1.23118 5.33604C2.09108 3.8836 4.03508 3.37165 5.55092 4.21717C5.75725 4.33647 5.98146 4.3967 6.20926 4.39902C6.95227 4.39902 7.57364 3.80368 7.58556 3.07167C7.58079 2.26437 7.90877 1.4895 8.50628 0.90459C9.10618 0.320834 9.90286 0 10.7508 0H12.2452ZM12.2452 1.73737H10.7508C10.3811 1.73737 10.0352 1.87752 9.77406 2.13001C9.51406 2.38367 9.37214 2.72072 9.37452 3.07977C9.34948 4.77313 7.92427 6.13638 6.19852 6.13638C5.64514 6.13059 5.11203 5.98581 4.64929 5.7171C3.9993 5.35804 3.15014 5.57927 2.76969 6.22209L1.96227 7.51122C1.59255 8.13436 1.81916 8.95787 2.47749 9.32967C3.45426 9.87867 4.0637 10.9026 4.0637 12.0006C4.0637 13.0986 3.45426 14.1213 2.47511 14.6715C1.82035 15.0398 1.59375 15.8587 1.97301 16.4957L2.72556 17.7559C2.91161 18.0814 3.21573 18.3165 3.56756 18.4126C3.9182 18.5076 4.30461 18.4671 4.62663 18.2933C5.1001 18.0235 5.6511 17.8833 6.20449 17.8833C6.4776 17.8833 6.75072 17.9169 7.01787 17.9864C7.82409 18.1972 8.52417 18.7207 8.93921 19.4238C9.20874 19.8651 9.35782 20.3805 9.36259 20.9063C9.36259 21.6592 9.98515 22.2626 10.7508 22.2626H12.2452C13.0073 22.2626 13.6299 21.6627 13.6334 20.9225C13.6287 20.1048 13.9578 19.3276 14.5601 18.7427C15.154 18.1659 15.9841 17.8196 16.8142 17.8428C17.358 17.8555 17.8816 17.998 18.3432 18.2528C19.0075 18.6223 19.8554 18.4022 20.2395 17.7652L21.0314 16.483C21.2079 16.1876 21.2592 15.817 21.1649 15.4753C21.0719 15.1336 20.8382 14.8371 20.5233 14.6622C19.7863 14.2499 19.2603 13.5851 19.042 12.7882C18.8262 12.0064 18.9443 11.1527 19.3653 10.4497C19.6396 9.98639 20.0415 9.59606 20.5233 9.32735C21.1697 8.96019 21.3963 8.13899 21.0206 7.49964C21.0051 7.47416 20.9908 7.44752 20.9789 7.41972L20.28 6.24294C19.8996 5.60012 19.0528 5.37889 18.3885 5.74606C17.6705 6.15839 16.8166 6.27653 15.9961 6.06689C15.1767 5.86072 14.4897 5.35688 14.0616 4.64572C13.7873 4.20095 13.6382 3.68322 13.6334 3.15622C13.6442 2.7601 13.5011 2.40452 13.2411 2.14391C12.9823 1.88446 12.6185 1.73737 12.2452 1.73737ZM11.5033 8.07772C13.7299 8.07772 15.5415 9.83825 15.5415 12.0007C15.5415 14.1631 13.7299 15.9214 11.5033 15.9214C9.27661 15.9214 7.46499 14.1631 7.46499 12.0007C7.46499 9.83825 9.27661 8.07772 11.5033 8.07772ZM11.5033 9.81509C10.2629 9.81509 9.25395 10.7961 9.25395 12.0007C9.25395 13.2053 10.2629 14.184 11.5033 14.184C12.7436 14.184 13.7526 13.2053 13.7526 12.0007C13.7526 10.7961 12.7436 9.81509 11.5033 9.81509Z" fill="#4F5B62"/>
<path d="M22.6235 6.72477C22.6092 6.69118 22.5925 6.65875 22.5735 6.62516L21.8304 5.37542C20.9586 3.90444 19.0158 3.39713 17.4892 4.24381L17.7317 4.68106C17.7328 4.6805 17.7338 4.67994 17.7348 4.67938M22.6235 6.72477L15.1738 4.02241C15.4321 4.44849 15.8414 4.74858 16.3225 4.87086L16.3225 4.8709L16.3285 4.87234C16.7997 4.98599 17.3024 4.92681 17.7348 4.67938M22.6235 6.72477C23.4131 8.17374 22.8859 9.99797 21.419 10.8308L22.6235 6.72477ZM17.7348 4.67938C19.0321 3.96197 20.6715 4.40071 21.4003 5.63035L21.4007 5.63093L22.1409 6.87596C22.1523 6.8963 22.159 6.91017 22.1636 6.92077L22.173 6.94289L22.1845 6.96401C22.8405 8.16785 22.4074 9.69376 21.1735 10.3952C20.8872 10.5555 20.6491 10.7832 20.4831 11.0635C20.2308 11.4889 20.1583 11.9988 20.2879 12.4729L20.288 12.4735C20.4196 12.9528 20.7351 13.3499 21.1712 13.5923L17.7348 4.67938ZM14.9211 3.16807L14.9214 3.15732C14.9422 2.47007 14.6695 1.7862 14.1711 1.28624C13.6711 0.789349 12.9687 0.5 12.2452 0.5H10.7508C10.0313 0.5 9.36056 0.771234 8.85553 1.26239C8.35187 1.7557 8.08161 2.40167 8.08555 3.06871L8.08562 3.07981L8.0855 3.07981C8.06896 4.09496 7.21491 4.89902 6.20926 4.89902H6.20417V4.89899C5.89128 4.89581 5.58398 4.81301 5.30436 4.65217C4.01838 3.93697 2.37839 4.37976 1.66144 5.59076L1.65489 5.60181L1.65475 5.60172L0.849628 6.8853C0.12974 8.10612 0.555122 9.68045 1.8263 10.3976L1.58063 10.8331M14.9211 3.16807L21.1712 13.5923C21.7808 13.933 22.2327 14.5058 22.4121 15.1594L22.4122 15.1596C22.5912 15.811 22.4939 16.5217 22.1438 17.1081L21.3539 18.386L21.3538 18.386L21.3503 18.3919C20.6212 19.6084 18.9795 20.0426 17.6981 19.3236L17.6969 19.3229C17.4218 19.1696 17.1096 19.088 16.8005 19.0803L16.8005 19.0801H16.788H16.7808C16.3046 19.0801 15.8263 19.2743 15.4768 19.6121L15.476 19.6129C15.1195 19.9591 14.92 20.426 14.9224 20.9226C14.9141 22.3347 13.726 23.5 12.2452 23.5H10.7508C9.26084 23.5 8.07364 22.327 8.07364 20.9156H8.07367L8.0736 20.9099C8.07019 20.61 7.98281 20.3055 7.82208 20.0418C7.56778 19.6129 7.15653 19.3043 6.67989 19.1808C6.20863 19.0581 5.69686 19.1247 5.27265 19.3623C4.63769 19.7048 3.89026 19.7875 3.20932 19.6017C2.53024 19.4149 1.94434 18.9605 1.60307 18.3645L1.60314 18.3645L1.59838 18.3565L0.85372 17.1103C0.853624 17.1102 0.853528 17.11 0.853431 17.1099C0.128942 15.8888 0.554523 14.3168 1.82501 13.6031C2.40654 13.2775 2.77474 12.6661 2.77474 12.0006C2.77474 11.3355 2.40694 10.7227 1.82492 10.3968L1.58063 10.8331M14.9211 3.16807L14.9212 3.17883M14.9211 3.16807L14.9212 3.17883M1.58063 10.8331C2.00878 11.0728 2.27474 11.5211 2.27474 12.0006C2.27474 12.4801 2.00878 12.9272 1.58063 13.1669L0.422575 6.62516C-0.448051 8.09382 0.0695545 9.9806 1.58063 10.8331ZM14.9212 3.17883C14.9249 3.46407 15.0182 3.76586 15.1737 4.02239L14.9212 3.17883ZM9.42489 1.77212L9.42653 1.77053C9.78163 1.42725 10.2524 1.23737 10.7508 1.23737H12.2452C12.7465 1.23737 13.2391 1.43395 13.595 1.79077L9.42489 1.77212ZM9.42489 1.77212C9.07049 2.11788 8.87284 2.58237 8.8745 3.07704C8.85113 4.4824 7.66279 5.635 6.20116 5.63638C5.73253 5.63104 5.28545 5.50833 4.90037 5.28471L4.90043 5.28461L4.89105 5.27944C4.01105 4.79332 2.86535 5.08606 2.34287 5.9616L1.53853 7.24582L1.5384 7.24574L1.53226 7.25609C1.01316 8.13101 1.34016 9.26158 2.23162 9.76503L2.23251 9.76553C3.05637 10.2286 3.5637 11.0885 3.5637 12.0006C3.5637 12.9122 3.05677 13.7711 2.23018 14.2356L2.22997 14.2357C1.33729 14.7379 1.01635 15.8663 1.54338 16.7515L1.54373 16.7521L2.29403 18.0085C2.5453 18.4453 2.95626 18.7639 3.43577 18.8949L3.43684 18.8952C3.90763 19.0228 4.42616 18.9696 4.86404 18.7334L4.86411 18.7335L4.87422 18.7277C5.26863 18.5029 5.73366 18.3833 6.20449 18.3833C6.43656 18.3833 6.66731 18.4118 6.89199 18.4703C7.57335 18.6486 8.16239 19.0914 8.50864 19.678L8.50859 19.678L8.51251 19.6844C8.73469 20.0482 8.85828 20.4743 8.8626 20.9088C8.86397 21.9487 9.72203 22.7626 10.7508 22.7626H12.2452C13.2678 22.7626 14.1285 21.9547 14.1335 20.925L14.1334 20.9196C14.1295 20.2413 14.4015 19.5938 14.9085 19.1014C15.4122 18.6122 16.114 18.3234 16.8003 18.3426L16.8025 18.3426C17.2663 18.3535 17.7108 18.4749 18.1011 18.6903C18.9934 19.1859 20.1388 18.8975 20.6662 18.0258C20.6667 18.0249 20.6672 18.0241 20.6677 18.0233L21.4568 16.7457L21.4568 16.7458L21.4606 16.7395C21.7074 16.3265 21.777 15.8158 21.6474 15.344M9.42489 1.77212L21.6474 15.344M19.3653 10.4497C18.9443 11.1527 18.8262 12.0064 19.042 12.7882C19.2603 13.5851 19.7863 14.2499 20.5233 14.6622M19.3653 10.4497L13.595 1.7908C13.9523 2.14894 14.1451 2.63434 14.1335 3.15966C14.1389 3.59332 14.2624 4.01879 14.4872 4.38325L14.49 4.38781L14.49 4.38783C14.8484 4.9832 15.4238 5.40731 16.1181 5.582L16.1198 5.58245C16.815 5.76007 17.5351 5.65955 18.1395 5.31247L18.1466 5.30839L18.1466 5.30845C19.04 4.81467 20.1878 5.10538 20.7103 5.98828L21.4088 7.1644L21.4255 7.19252L21.4384 7.22258C21.439 7.22391 21.4415 7.22936 21.4478 7.23975L21.4518 7.2463L21.4517 7.24633C21.9713 8.13056 21.6549 9.25963 20.7703 9.76211L20.7669 9.76404L20.7668 9.76403C20.3607 9.99051 20.0239 10.3187 19.7955 10.7044L19.7942 10.7066C19.4426 11.2938 19.345 12.0067 19.524 12.6551L19.5243 12.6561C19.7062 13.3203 20.1442 13.8772 20.7674 14.2259L20.5233 14.6622M19.3653 10.4497C19.6396 9.98639 20.0415 9.59606 20.5233 9.32735L19.3653 10.4497ZM20.5233 14.6622L20.7661 14.2251C21.1968 14.4644 21.5184 14.87 21.6474 15.344M20.5233 14.6622L21.6474 15.344M11.5033 8.57772C13.4675 8.57772 15.0415 10.1279 15.0415 12.0007C15.0415 13.8731 13.4679 15.4214 11.5033 15.4214C9.53866 15.4214 7.96499 13.8731 7.96499 12.0007C7.96499 10.1279 9.53905 8.57772 11.5033 8.57772ZM11.5033 9.31509C10.0003 9.31509 8.75395 10.5066 8.75395 12.0007C8.75395 13.4954 10.001 14.684 11.5033 14.684C13.0055 14.684 14.2526 13.4954 14.2526 12.0007C14.2526 10.5066 13.0062 9.31509 11.5033 9.31509Z" stroke="black" stroke-opacity="0.22"/>
</svg>
