<svg width="12" height="12" viewBox="0 0 12 12" fill="none" xmlns="http://www.w3.org/2000/svg">
<path d="M5.99986 2.84436C4.25705 2.84436 2.84424 4.25717 2.84424 5.99905C2.84424 7.74186 4.25705 9.15467 5.99986 9.15467C7.74268 9.15467 9.15549 7.74186 9.15549 5.99905C9.15549 4.25717 7.74268 2.84436 5.99986 2.84436Z" fill="#FCC21B"/>
<path d="M5.32111 2.26965H6.67955C6.74237 2.26965 6.80049 2.23871 6.83705 2.18715C6.87268 2.13652 6.88112 2.06996 6.85955 2.0109L6.17986 0.171523C6.15174 0.0955859 6.08049 0.0458984 5.99986 0.0458984C5.91924 0.0458984 5.84799 0.0965234 5.81986 0.171523L5.14018 2.01184C5.11861 2.0709 5.12705 2.13652 5.16268 2.18809C5.19924 2.23965 5.2583 2.26965 5.32111 2.26965Z" fill="#FCC21B"/>
<path d="M9.11799 3.84278C9.15362 3.87934 9.2033 3.89903 9.25299 3.89903C9.26424 3.89903 9.27549 3.89809 9.28674 3.89622C9.34862 3.88497 9.40018 3.84465 9.42737 3.78747L10.2486 2.00528C10.2824 1.93215 10.2664 1.84684 10.2102 1.78965C10.153 1.73247 10.0667 1.71747 9.99361 1.75028L8.21237 2.57247C8.15518 2.59872 8.11487 2.65122 8.10362 2.71309C8.09237 2.77497 8.11299 2.83778 8.15612 2.88278L9.11799 3.84278Z" fill="#FCC21B"/>
<path d="M11.8295 5.82002L9.98828 5.14127C9.92922 5.11971 9.86359 5.12815 9.81203 5.16377C9.76047 5.1994 9.73047 5.25752 9.73047 5.32034L9.73141 6.67877C9.73141 6.74158 9.76234 6.80065 9.81391 6.83627C9.84672 6.85783 9.88516 6.87002 9.92359 6.87002C9.94609 6.87002 9.96859 6.86627 9.99016 6.85783L11.8314 6.17909C11.9064 6.1519 11.957 6.07971 11.957 5.99815C11.9552 5.9194 11.9055 5.84815 11.8295 5.82002Z" fill="#FCC21B"/>
<path d="M9.42736 8.21251C9.41441 8.1844 9.39486 8.15983 9.37038 8.1409C9.34589 8.12197 9.3172 8.10923 9.28674 8.10376C9.22486 8.09345 9.16111 8.11314 9.11799 8.1572L8.15705 9.11814C8.11299 9.1622 8.09236 9.22595 8.10361 9.28782C8.11486 9.34876 8.15517 9.4022 8.21236 9.42845L9.99455 10.2497C10.0199 10.2619 10.047 10.2666 10.0752 10.2666C10.1249 10.2666 10.1736 10.2469 10.2102 10.2103C10.2674 10.1531 10.2824 10.0678 10.2486 9.9947L9.42736 8.21251Z" fill="#FCC21B"/>
<path d="M6.67889 9.72937L5.32046 9.73031C5.25764 9.73031 5.19952 9.76125 5.1639 9.81281C5.12827 9.86437 5.11983 9.93 5.14046 9.98812L5.82014 11.8294C5.84827 11.9044 5.91952 11.955 6.00014 11.955C6.08077 11.955 6.15202 11.9044 6.18014 11.8294L6.85983 9.98812C6.88139 9.92906 6.87296 9.86343 6.83733 9.81187C6.80077 9.76031 6.74264 9.72937 6.67889 9.72937Z" fill="#FCC21B"/>
<path d="M2.88205 8.1572C2.83799 8.11314 2.77518 8.09345 2.7133 8.10376C2.65143 8.11501 2.59893 8.15532 2.57268 8.21251L1.75143 9.9947C1.71768 10.0678 1.73361 10.1541 1.7908 10.2103C1.81847 10.2381 1.85399 10.2566 1.89256 10.2635C1.93113 10.2704 1.97088 10.2652 2.00643 10.2488L3.78861 9.42658C3.81672 9.41362 3.84129 9.39408 3.86022 9.36959C3.87916 9.34511 3.8919 9.31641 3.89736 9.28595C3.90861 9.22407 3.88799 9.16126 3.84393 9.1172L2.88205 8.1572Z" fill="#FCC21B"/>
<path d="M2.07845 6.87092C2.11689 6.87092 2.15533 6.85873 2.18814 6.83623C2.2397 6.80061 2.27064 6.74154 2.27064 6.67873L2.2697 5.32029C2.26971 5.28942 2.26226 5.25901 2.24799 5.23163C2.23372 5.20426 2.21305 5.18074 2.18774 5.16306C2.16242 5.14539 2.13322 5.13409 2.1026 5.13013C2.07199 5.12616 2.04087 5.12965 2.01189 5.14029L0.17064 5.81998C0.133774 5.8335 0.101947 5.85801 0.079463 5.8902C0.0569789 5.92239 0.0449219 5.96071 0.0449219 5.99998C0.0449219 6.03925 0.0569789 6.07757 0.079463 6.10976C0.101947 6.14195 0.133774 6.16646 0.17064 6.17998L2.01283 6.85873C2.03439 6.86717 2.05595 6.87092 2.07845 6.87092Z" fill="#FCC21B"/>
<path d="M2.57335 3.78743C2.58634 3.81552 2.60591 3.84006 2.63041 3.85897C2.65491 3.87787 2.68362 3.89058 2.71408 3.89601C2.74455 3.90144 2.77588 3.89943 2.8054 3.89016C2.83493 3.88089 2.86178 3.86462 2.88367 3.84274L3.84367 2.88181C3.88773 2.83681 3.90742 2.77399 3.89617 2.71212C3.88492 2.65118 3.8446 2.59868 3.78742 2.57243L2.00429 1.75118C1.93117 1.71743 1.84585 1.73337 1.78867 1.79056C1.73148 1.84774 1.71648 1.93306 1.75023 2.00618L2.57335 3.78743Z" fill="#FCC21B"/>
</svg>
